<?xml version="1.0" encoding="UTF-8" standalone="no" ?>
<!DOCTYPE svg PUBLIC "-//W3C//DTD SVG 1.1//EN" "http://www.w3.org/Graphics/SVG/1.1/DTD/svg11.dtd">
<svg xmlns="http://www.w3.org/2000/svg" xmlns:xlink="http://www.w3.org/1999/xlink" version="1.1" width="400" height="400" viewBox="-37.78 -37.78 400 400" xml:space="preserve">
<desc>Created with Fabric.js 5.2.4</desc>
<defs>
</defs>
<rect x="0" y="0" width="100%" height="100%" fill="transparent"></rect>
<g transform="matrix(1 0 0 1 200 200)" id="c4c9a173-bf61-4064-ae82-2d38920b74dc"  >
<rect style="stroke: none; stroke-width: 1; stroke-dasharray: none; stroke-linecap: butt; stroke-dashoffset: 0; stroke-linejoin: miter; stroke-miterlimit: 4; fill: rgb(255,255,255); fill-rule: nonzero; opacity: 1; visibility: hidden;" vector-effect="non-scaling-stroke"  x="-200" y="-200" rx="0" ry="0" width="400" height="400" />
</g>
<g transform="matrix(Infinity NaN NaN Infinity 0 0)" id="e36053c4-882a-4ec1-a6c8-77146c5d9ad3"  >
</g>
<g transform="matrix(0.49 0 0 0.41 154.46 137.25)"  >
<g style="" vector-effect="non-scaling-stroke"   >
		<g transform="matrix(1.56 0 0 1.56 0 152.03)"  >
<path style="stroke: none; stroke-width: 1; stroke-dasharray: none; stroke-linecap: butt; stroke-dashoffset: 0; stroke-linejoin: miter; stroke-miterlimit: 4; fill: rgb(247,34,43); fill-rule: nonzero; opacity: 1;" vector-effect="non-scaling-stroke"  transform=" translate(-256, -353.3)" d="M 489.204 324.678 C 496.708 330.611 501.523 339.796 501.523 350.105 L 501.523 350.105 C 501.523 367.997 487.01800000000003 382.50100000000003 469.127 382.50100000000003 L 402.618 382.50100000000003 L 148.388 382.50100000000003 L 42.874 382.50100000000003 C 24.982000000000003 382.50100000000003 10.478000000000002 367.99600000000004 10.478000000000002 350.105 L 10.478000000000002 350.105 C 10.478000000000002 339.456 15.616000000000001 330.007 23.549 324.10200000000003 L 489.204 324.678 z" stroke-linecap="round" />
</g>
		<g transform="matrix(1.56 0 0 1.56 0 0)"  >
<path style="stroke: none; stroke-width: 1; stroke-dasharray: none; stroke-linecap: butt; stroke-dashoffset: 0; stroke-linejoin: miter; stroke-miterlimit: 4; fill: rgb(237,115,47); fill-rule: nonzero; opacity: 1;" vector-effect="non-scaling-stroke"  transform=" translate(-256, -256)" d="M 476.448 230.927 C 490.29699999999997 230.927 501.52299999999997 242.153 501.52299999999997 256.002 L 501.52299999999997 256.002 C 501.52299999999997 269.85 490.29699999999997 281.077 476.448 281.077 L 35.552 281.077 C 21.703 281.077 10.477 269.851 10.477 256.002 L 10.477 256.002 C 10.477 242.15300000000002 21.703000000000003 230.92700000000002 35.552 230.92700000000002 L 90.925 230.92700000000002 L 476.448 230.927 L 476.448 230.927 z" stroke-linecap="round" />
</g>
		<g transform="matrix(1.56 0 0 1.56 0 278.74)"  >
<path style="stroke: none; stroke-width: 1; stroke-dasharray: none; stroke-linecap: butt; stroke-dashoffset: 0; stroke-linejoin: miter; stroke-miterlimit: 4; fill: rgb(255,157,59); fill-rule: nonzero; opacity: 1;" vector-effect="non-scaling-stroke"  transform=" translate(-256, -434.4)" d="M 491.075 378.762 L 491.075 405.404 C 491.075 452.142 453.186 490.031 406.448 490.031 L 105.552 490.031 C 58.81400000000001 490.031 20.92500000000001 452.142 20.92500000000001 405.404 L 20.92500000000001 378.762 L 491.075 378.762 z" stroke-linecap="round" />
</g>
		<g transform="matrix(1.56 0 0 1.56 0 -202.42)"  >
<path style="stroke: none; stroke-width: 1; stroke-dasharray: none; stroke-linecap: butt; stroke-dashoffset: 0; stroke-linejoin: miter; stroke-miterlimit: 4; fill: rgb(255,157,59); fill-rule: nonzero; opacity: 1;" vector-effect="non-scaling-stroke"  transform=" translate(-256, -126.45)" d="M 335.925 230.927 L 52.269 230.927 C 29.189 230.927 10.478000000000002 212.216 10.478000000000002 189.136 L 10.478000000000002 189.136 C 10.478000000000002 96.813 85.32 21.97200000000001 177.642 21.97200000000001 L 334.358 21.97200000000001 C 426.681 21.97200000000001 501.522 96.81400000000001 501.522 189.136 L 501.522 189.136 C 501.522 212.216 482.811 230.927 459.731 230.927 L 408.537 230.927 L 335.925 230.927 z" stroke-linecap="round" />
</g>
		<g transform="matrix(1.56 0 0 1.56 0 73.62)"  >
<path style="stroke: none; stroke-width: 1; stroke-dasharray: none; stroke-linecap: butt; stroke-dashoffset: 0; stroke-linejoin: miter; stroke-miterlimit: 4; fill: rgb(33,204,90); fill-rule: nonzero; opacity: 1;" vector-effect="non-scaling-stroke"  transform=" translate(-256, -303.11)" d="M 15.213 276.457 C 1.9109999999999996 299.83299999999997 20.399 320.305 24.841 323.371 C 37.254000000000005 331.93699999999995 53.682 331.897 66.076 323.303 C 78.567 314.703 95.071 314.703 107.56099999999999 323.304 L 107.568 323.30899999999997 C 120.059 331.90999999999997 136.562 331.91099999999994 149.053 323.30999999999995 L 149.053 323.30999999999995 C 161.54399999999998 314.7099999999999 178.048 314.7099999999999 190.538 323.3109999999999 C 203.031 331.91399999999993 219.53900000000002 331.9049999999999 232.024 323.2919999999999 L 232.03 323.2879999999999 C 239.199 318.3519999999999 247.688 316.2659999999999 255.983 316.9959999999999 L 255.983 316.99799999999993 C 255.988 316.99699999999996 255.995 316.99699999999996 256 316.99699999999996 C 256.005 316.99699999999996 256.012 316.99799999999993 256.017 316.99799999999993 L 256.017 316.9959999999999 C 264.311 316.2659999999999 272.801 318.3519999999999 279.96999999999997 323.2879999999999 L 279.97599999999994 323.2919999999999 C 292.46099999999996 331.9059999999999 308.96899999999994 331.91399999999993 321.46199999999993 323.3109999999999 C 333.9529999999999 314.7099999999999 350.4559999999999 314.70899999999995 362.94699999999995 323.30999999999995 L 362.94699999999995 323.30999999999995 C 375.43799999999993 331.91099999999994 391.94199999999995 331.90999999999997 404.43199999999996 323.30899999999997 L 404.43899999999996 323.304 C 416.92999999999995 314.703 433.433 314.702 445.924 323.303 C 458.318 331.897 474.745 331.937 487.159 323.371 C 491.59999999999997 320.30699999999996 510.089 299.834 496.787 276.457 L 15.213 276.457 L 15.213 276.457 z" stroke-linecap="round" />
</g>
		<g transform="matrix(1.56 0 0 1.56 113.44 185.97)"  >
<polygon style="stroke: none; stroke-width: 1; stroke-dasharray: none; stroke-linecap: butt; stroke-dashoffset: 0; stroke-linejoin: miter; stroke-miterlimit: 4; fill: rgb(255,228,141); fill-rule: nonzero; opacity: 1;" vector-effect="non-scaling-stroke"  points="-143.59,-54.41 4.96,54.41 143.59,-45.25 105.53,-50.34 " />
</g>
		<g transform="matrix(1.56 0 0 1.56 0 0)"  >
<path style="stroke: none; stroke-width: 1; stroke-dasharray: none; stroke-linecap: butt; stroke-dashoffset: 0; stroke-linejoin: miter; stroke-miterlimit: 4; fill: rgb(0,0,0); fill-rule: nonzero; opacity: 1;" vector-effect="non-scaling-stroke"  transform=" translate(-256, -256)" d="M 502.046 322.688 C 510.029 311.68899999999996 517.004 293.438 507.186 273.77099999999996 C 510.222 268.53999999999996 511.96999999999997 262.47299999999996 511.96999999999997 255.99999999999994 C 511.96999999999997 243.71699999999996 505.70099999999996 232.87199999999996 496.19699999999995 226.48999999999995 C 505.9189999999999 216.99799999999996 511.96999999999997 203.76299999999995 511.96999999999997 189.13399999999996 C 511.96999999999997 91.19899999999996 432.29299999999995 11.521999999999963 334.35799999999995 11.521999999999963 L 177.642 11.521999999999963 C 79.707 11.522 0.03 91.199 0.03 189.134 C 0.03 203.762 6.081 216.99699999999999 15.802999999999999 226.48999999999998 C 6.299 232.872 0.03 243.717 0.03 256 C 0.03 262.471 1.778 268.538 4.814 273.771 C -5.007 293.446 1.976 311.70300000000003 9.963000000000001 322.70000000000005 C 3.6340000000000012 330.33000000000004 0.030000000000001137 340.04200000000003 0.030000000000001137 350.105 C 0.030000000000001137 360.815 3.990000000000001 370.612 10.509 378.13100000000003 C 10.496 378.341 10.478 378.54900000000004 10.478 378.762 L 10.478 405.404 C 10.478 457.829 53.128 500.479 105.553 500.479 L 406.449 500.479 C 458.874 500.479 501.524 457.829 501.524 405.404 L 501.524 378.762 C 501.524 378.549 501.504 378.341 501.493 378.13100000000003 C 508.012 370.612 511.972 360.81500000000005 511.972 350.105 C 511.97 339.927 508.42 330.313 502.046 322.688 z M 226.113 337.764 C 230.24 336.403 234.212 334.466 237.891 331.93600000000004 C 237.91299999999998 331.92100000000005 237.933 331.908 237.95499999999998 331.89200000000005 C 242.93499999999997 328.46400000000006 249.01799999999997 326.86800000000005 255.064 327.40500000000003 C 255.57399999999998 327.451 256.087 327.45700000000005 256.598 327.427 C 256.598 327.427 256.6 327.427 256.601 327.427 C 256.711 327.42100000000005 256.822 327.41200000000003 256.933 327.403 C 262.984 326.872 269.065 328.466 274.044 331.892 C 274.06399999999996 331.906 274.084 331.919 274.104 331.933 C 290.046 342.894 311.45 342.89 327.388 331.915 C 336.25 325.81300000000005 348.159 325.81100000000004 357.02299999999997 331.915 C 372.97499999999997 342.89700000000005 394.407 342.89700000000005 410.359 331.913 C 410.373 331.904 410.38599999999997 331.89300000000003 410.40099999999995 331.884 C 419.25999999999993 325.807 431.14899999999994 325.813 439.972 331.887 C 441.98699999999997 333.284 444.09 334.503 446.25899999999996 335.547 L 333.62399999999997 416.523 L 226.113 337.764 z M 30.844 314.821 C 30.69 314.704 18.241 303.33500000000004 21.544 288.639 C 25.844 290.491 30.579 291.523 35.551 291.523 L 476.447 291.523 C 481.419 291.523 486.154 290.492 490.455 288.639 C 493.75899999999996 303.33500000000004 481.317 314.69800000000004 481.22499999999997 314.771 C 472.45 320.825 460.655 320.80400000000003 451.849 314.696 C 435.897 303.71400000000006 414.466 303.71500000000003 398.514 314.697 C 398.503 314.704 398.492 314.713 398.48 314.72 C 389.62100000000004 320.805 377.728 320.798 368.872 314.70200000000006 C 352.91900000000004 303.72 331.486 303.72 315.53700000000003 314.70300000000003 C 306.672 320.807 294.766 320.80100000000004 285.90900000000005 314.689 C 285.88700000000006 314.673 285.86500000000007 314.65900000000005 285.84200000000004 314.64300000000003 C 277.13000000000005 308.66200000000003 266.583 305.78900000000004 256.01300000000003 306.51500000000004 C 245.45000000000005 305.785 234.87900000000002 308.65600000000006 226.16200000000003 314.64000000000004 C 226.13800000000003 314.65700000000004 226.11400000000003 314.672 226.09100000000004 314.689 C 217.23400000000004 320.8 205.32700000000003 320.805 196.46300000000002 314.70300000000003 C 180.51300000000003 303.72 159.08 303.71900000000005 143.12800000000001 314.70200000000006 C 134.276 320.7970000000001 122.38200000000002 320.80500000000006 113.52100000000002 314.72100000000006 C 113.50800000000001 314.7130000000001 113.49800000000002 314.70400000000006 113.48500000000001 314.69700000000006 C 97.53300000000002 303.71400000000006 76.102 303.71400000000006 60.122000000000014 314.71600000000007 C 51.342 320.803 39.547 320.826 30.844 314.821 z M 477.361 338.922 C 480.293 338.235 483.167 337.261 485.942 336.004 C 489.237 339.921 491.074 344.867 491.074 350.10400000000004 C 491.074 362.20700000000005 481.228 372.05300000000005 469.125 372.05300000000005 L 431.276 372.05300000000005 L 477.361 338.922 z M 335.925 241.374 C 341.694 241.374 346.373 236.697 346.373 230.926 C 346.373 225.15499999999997 341.695 220.47799999999998 335.925 220.47799999999998 L 52.269 220.47799999999998 C 34.986 220.47799999999998 20.926 206.41699999999997 20.926 189.135 C 20.926 102.722 91.229 32.41899999999998 177.642 32.41899999999998 L 334.358 32.41899999999998 C 420.771 32.41899999999998 491.074 102.72199999999998 491.074 189.135 C 491.074 206.418 477.01300000000003 220.47799999999998 459.731 220.47799999999998 L 408.537 220.47799999999998 C 402.768 220.47799999999998 398.089 225.15499999999997 398.089 230.926 C 398.089 236.697 402.767 241.374 408.537 241.374 C 408.537 241.374 474.601 241.374 476.447 241.374 C 484.513 241.374 491.074 247.935 491.074 256.001 C 491.074 264.06699999999995 484.51300000000003 270.628 476.447 270.628 L 35.552 270.628 C 27.485999999999997 270.628 20.924999999999997 264.067 20.924999999999997 256.001 C 20.924999999999997 247.93499999999995 27.485999999999997 241.37399999999997 35.552 241.37399999999997 L 335.925 241.374 L 335.925 241.374 z M 406.448 479.583 L 105.552 479.583 C 64.65 479.583 31.373000000000005 446.30600000000004 31.373000000000005 405.404 L 31.373000000000005 391.368 C 35.036 392.391 38.889 392.949 42.874 392.949 L 148.388 392.949 C 154.157 392.949 158.836 388.272 158.836 382.50100000000003 C 158.836 376.73100000000005 154.157 372.05300000000005 148.388 372.05300000000005 L 42.874 372.05300000000005 C 30.771 372.05300000000005 20.925 362.20700000000005 20.925 350.10400000000004 C 20.925 344.83900000000006 22.749000000000002 339.90500000000003 26.043 335.99800000000005 C 32.17 338.77700000000004 38.785 340.17300000000006 45.405 340.17300000000006 C 54.730000000000004 340.17300000000006 64.055 337.41600000000005 71.999 331.90700000000004 C 80.84899999999999 325.81300000000005 92.73899999999999 325.80500000000006 101.596 331.88200000000006 C 101.61200000000001 331.89200000000005 101.625 331.9030000000001 101.64 331.91200000000003 C 117.593 342.896 139.025 342.896 154.976 331.91400000000004 C 161.973 327.09700000000004 170.864 326.1 178.66 328.88800000000003 C 178.72299999999998 328.93600000000004 178.778 328.98900000000003 178.84199999999998 329.035 L 237.55899999999997 372.05100000000004 L 217.68899999999996 372.05100000000004 C 211.91999999999996 372.05100000000004 207.24099999999996 376.72800000000007 207.24099999999996 382.499 C 207.24099999999996 388.27 211.91899999999995 392.947 217.68899999999996 392.947 L 264.39599999999996 392.947 C 264.91299999999995 392.947 265.41799999999995 392.897 265.91399999999993 392.825 L 327.38899999999995 437.861 C 329.227 439.20799999999997 331.395 439.881 333.56399999999996 439.881 C 335.70199999999994 439.881 337.84 439.227 339.662 437.917 L 402.238 392.929 C 402.364 392.933 402.488 392.948 402.615 392.948 L 469.124 392.948 C 473.108 392.948 476.96200000000005 392.39 480.625 391.36699999999996 L 480.625 405.40299999999996 C 480.627 446.306 447.35 479.583 406.448 479.583 z" stroke-linecap="round" />
</g>
		<g transform="matrix(1.56 0 0 1.56 -194.26 -131.18)"  >
<path style="stroke: none; stroke-width: 1; stroke-dasharray: none; stroke-linecap: butt; stroke-dashoffset: 0; stroke-linejoin: miter; stroke-miterlimit: 4; fill: rgb(0,0,0); fill-rule: nonzero; opacity: 1;" vector-effect="non-scaling-stroke"  transform=" translate(-131.67, -172.04)" d="M 131.672 161.269 C 125.90299999999999 161.269 121.22399999999999 165.946 121.22399999999999 171.717 L 121.22399999999999 172.36800000000002 C 121.22399999999999 178.13800000000003 125.90299999999999 182.81600000000003 131.672 182.81600000000003 C 137.441 182.81600000000003 142.12 178.13900000000004 142.12 172.36800000000002 L 142.12 171.717 C 142.119 165.947 137.441 161.269 131.672 161.269 z" stroke-linecap="round" />
</g>
		<g transform="matrix(1.56 0 0 1.56 -97.13 -160.57)"  >
<path style="stroke: none; stroke-width: 1; stroke-dasharray: none; stroke-linecap: butt; stroke-dashoffset: 0; stroke-linejoin: miter; stroke-miterlimit: 4; fill: rgb(0,0,0); fill-rule: nonzero; opacity: 1;" vector-effect="non-scaling-stroke"  transform=" translate(-193.84, -153.24)" d="M 193.836 142.463 C 188.067 142.463 183.388 147.14 183.388 152.911 L 183.388 153.562 C 183.388 159.33200000000002 188.066 164.01000000000002 193.836 164.01000000000002 C 199.60500000000002 164.01000000000002 204.28400000000002 159.33300000000003 204.28400000000002 153.562 L 204.28400000000002 152.911 C 204.284 147.141 199.605 142.463 193.836 142.463 z" stroke-linecap="round" />
</g>
		<g transform="matrix(1.56 0 0 1.56 -291.4 -160.57)"  >
<path style="stroke: none; stroke-width: 1; stroke-dasharray: none; stroke-linecap: butt; stroke-dashoffset: 0; stroke-linejoin: miter; stroke-miterlimit: 4; fill: rgb(0,0,0); fill-rule: nonzero; opacity: 1;" vector-effect="non-scaling-stroke"  transform=" translate(-69.51, -153.24)" d="M 69.507 142.463 C 63.73800000000001 142.463 59.059000000000005 147.14 59.059000000000005 152.911 L 59.059000000000005 153.562 C 59.059000000000005 159.33200000000002 63.73800000000001 164.01000000000002 69.507 164.01000000000002 C 75.27600000000001 164.01000000000002 79.95500000000001 159.33300000000003 79.95500000000001 153.562 L 79.95500000000001 152.911 C 79.955 147.141 75.277 142.463 69.507 142.463 z" stroke-linecap="round" />
</g>
		<g transform="matrix(1.56 0 0 1.56 0 -131.18)"  >
<path style="stroke: none; stroke-width: 1; stroke-dasharray: none; stroke-linecap: butt; stroke-dashoffset: 0; stroke-linejoin: miter; stroke-miterlimit: 4; fill: rgb(0,0,0); fill-rule: nonzero; opacity: 1;" vector-effect="non-scaling-stroke"  transform=" translate(-256, -172.04)" d="M 256 161.269 C 250.231 161.269 245.552 165.946 245.552 171.717 L 245.552 172.36800000000002 C 245.552 178.13800000000003 250.23 182.81600000000003 256 182.81600000000003 C 261.77 182.81600000000003 266.448 178.13900000000004 266.448 172.36800000000002 L 266.448 171.717 C 266.448 165.947 261.769 161.269 256 161.269 z" stroke-linecap="round" />
</g>
		<g transform="matrix(1.56 0 0 1.56 97.13 -160.57)"  >
<path style="stroke: none; stroke-width: 1; stroke-dasharray: none; stroke-linecap: butt; stroke-dashoffset: 0; stroke-linejoin: miter; stroke-miterlimit: 4; fill: rgb(0,0,0); fill-rule: nonzero; opacity: 1;" vector-effect="non-scaling-stroke"  transform=" translate(-318.16, -153.24)" d="M 318.164 142.463 C 312.395 142.463 307.716 147.14 307.716 152.911 L 307.716 153.562 C 307.716 159.33200000000002 312.394 164.01000000000002 318.164 164.01000000000002 C 323.93399999999997 164.01000000000002 328.61199999999997 159.33300000000003 328.61199999999997 153.562 L 328.61199999999997 152.911 C 328.612 147.141 323.934 142.463 318.164 142.463 z" stroke-linecap="round" />
</g>
		<g transform="matrix(1.56 0 0 1.56 194.26 -131.18)"  >
<path style="stroke: none; stroke-width: 1; stroke-dasharray: none; stroke-linecap: butt; stroke-dashoffset: 0; stroke-linejoin: miter; stroke-miterlimit: 4; fill: rgb(0,0,0); fill-rule: nonzero; opacity: 1;" vector-effect="non-scaling-stroke"  transform=" translate(-380.33, -172.04)" d="M 380.328 182.816 C 386.097 182.816 390.77599999999995 178.139 390.77599999999995 172.368 L 390.77599999999995 171.71699999999998 C 390.77599999999995 165.94699999999997 386.09799999999996 161.26899999999998 380.328 161.26899999999998 C 374.55899999999997 161.26899999999998 369.88 165.94599999999997 369.88 171.71699999999998 L 369.88 172.368 C 369.881 178.138 374.558 182.816 380.328 182.816 z" stroke-linecap="round" />
</g>
		<g transform="matrix(1.56 0 0 1.56 291.4 -160.57)"  >
<path style="stroke: none; stroke-width: 1; stroke-dasharray: none; stroke-linecap: butt; stroke-dashoffset: 0; stroke-linejoin: miter; stroke-miterlimit: 4; fill: rgb(0,0,0); fill-rule: nonzero; opacity: 1;" vector-effect="non-scaling-stroke"  transform=" translate(-442.49, -153.24)" d="M 442.493 164.01 C 448.262 164.01 452.941 159.333 452.941 153.56199999999998 L 452.941 152.91099999999997 C 452.941 147.14099999999996 448.263 142.46299999999997 442.493 142.46299999999997 C 436.723 142.46299999999997 432.045 147.13999999999996 432.045 152.91099999999997 L 432.045 153.56199999999998 C 432.045 159.332 436.722 164.01 442.493 164.01 z" stroke-linecap="round" />
</g>
		<g transform="matrix(1.56 0 0 1.56 -147.74 -252.04)"  >
<path style="stroke: none; stroke-width: 1; stroke-dasharray: none; stroke-linecap: butt; stroke-dashoffset: 0; stroke-linejoin: miter; stroke-miterlimit: 4; fill: rgb(0,0,0); fill-rule: nonzero; opacity: 1;" vector-effect="non-scaling-stroke"  transform=" translate(-161.45, -94.7)" d="M 161.448 83.924 C 155.679 83.924 151 88.601 151 94.37200000000001 L 151 95.02300000000001 C 151 100.793 155.679 105.471 161.448 105.471 C 167.217 105.471 171.89600000000002 100.79400000000001 171.89600000000002 95.023 L 171.89600000000002 94.372 C 171.896 88.602 167.217 83.924 161.448 83.924 z" stroke-linecap="round" />
</g>
		<g transform="matrix(1.56 0 0 1.56 -50.61 -222.65)"  >
<path style="stroke: none; stroke-width: 1; stroke-dasharray: none; stroke-linecap: butt; stroke-dashoffset: 0; stroke-linejoin: miter; stroke-miterlimit: 4; fill: rgb(0,0,0); fill-rule: nonzero; opacity: 1;" vector-effect="non-scaling-stroke"  transform=" translate(-223.61, -113.5)" d="M 223.612 102.73 C 217.843 102.73 213.164 107.40700000000001 213.164 113.178 L 213.164 113.829 C 213.164 119.59899999999999 217.843 124.27699999999999 223.612 124.27699999999999 C 229.381 124.27699999999999 234.06 119.6 234.06 113.82899999999998 L 234.06 113.17799999999998 C 234.06 107.408 229.381 102.73 223.612 102.73 z" stroke-linecap="round" />
</g>
		<g transform="matrix(1.56 0 0 1.56 46.52 -252.04)"  >
<path style="stroke: none; stroke-width: 1; stroke-dasharray: none; stroke-linecap: butt; stroke-dashoffset: 0; stroke-linejoin: miter; stroke-miterlimit: 4; fill: rgb(0,0,0); fill-rule: nonzero; opacity: 1;" vector-effect="non-scaling-stroke"  transform=" translate(-285.78, -94.7)" d="M 285.776 83.924 C 280.007 83.924 275.32800000000003 88.601 275.32800000000003 94.37200000000001 L 275.32800000000003 95.02300000000001 C 275.32800000000003 100.793 280.007 105.471 285.776 105.471 C 291.545 105.471 296.224 100.79400000000001 296.224 95.023 L 296.224 94.372 C 296.224 88.602 291.545 83.924 285.776 83.924 z" stroke-linecap="round" />
</g>
		<g transform="matrix(1.56 0 0 1.56 143.66 -222.65)"  >
<path style="stroke: none; stroke-width: 1; stroke-dasharray: none; stroke-linecap: butt; stroke-dashoffset: 0; stroke-linejoin: miter; stroke-miterlimit: 4; fill: rgb(0,0,0); fill-rule: nonzero; opacity: 1;" vector-effect="non-scaling-stroke"  transform=" translate(-347.94, -113.5)" d="M 358.388 113.829 L 358.388 113.178 C 358.388 107.408 353.709 102.72999999999999 347.94 102.72999999999999 C 342.171 102.72999999999999 337.492 107.40699999999998 337.492 113.178 L 337.492 113.829 C 337.492 119.59899999999999 342.17 124.27699999999999 347.94 124.27699999999999 C 353.71 124.27699999999999 358.388 119.599 358.388 113.829 z" stroke-linecap="round" />
</g>
		<g transform="matrix(1.56 0 0 1.56 -114.03 197.66)"  >
<path style="stroke: none; stroke-width: 1; stroke-dasharray: none; stroke-linecap: butt; stroke-dashoffset: 0; stroke-linejoin: miter; stroke-miterlimit: 4; fill: rgb(0,0,0); fill-rule: nonzero; opacity: 1;" vector-effect="non-scaling-stroke"  transform=" translate(-183.02, -382.5)" d="M 183.214 372.053 L 182.822 372.053 C 177.053 372.053 172.374 376.73 172.374 382.501 C 172.374 388.27199999999993 177.052 392.94899999999996 182.822 392.94899999999996 L 183.214 392.94899999999996 C 188.983 392.94899999999996 193.662 388.27199999999993 193.662 382.501 C 193.662 376.73 188.983 372.053 183.214 372.053 z" stroke-linecap="round" />
</g>
		<g transform="matrix(1.56 0 0 1.56 180.49 -39.18)"  >
<path style="stroke: none; stroke-width: 1; stroke-dasharray: none; stroke-linecap: butt; stroke-dashoffset: 0; stroke-linejoin: miter; stroke-miterlimit: 4; fill: rgb(0,0,0); fill-rule: nonzero; opacity: 1;" vector-effect="non-scaling-stroke"  transform=" translate(-371.51, -230.93)" d="M 371.35 241.374 L 371.677 241.374 C 377.446 241.374 382.125 236.697 382.125 230.926 C 382.125 225.15499999999997 377.446 220.47799999999998 371.677 220.47799999999998 L 371.35 220.47799999999998 C 365.581 220.47799999999998 360.90200000000004 225.15499999999997 360.90200000000004 230.926 C 360.90200000000004 236.697 365.58 241.374 371.35 241.374 z" stroke-linecap="round" />
</g>
</g>
</g>
<g transform="matrix(0.42 0 0 0.42 157.08 313.34)" style="filter: url(#SVGID_533);" id="4beb7f31-1398-4c04-bcff-b23695d66438"  >
<filter id="SVGID_533" y="-28%" height="156%" x="-21%" width="142%" >
	<feGaussianBlur in="SourceAlpha" stdDeviation="3"></feGaussianBlur>
	<feOffset dx="3" dy="3" result="oBlur" ></feOffset>
	<feFlood flood-color="rgb(0,0,0)" flood-opacity="1"/>
	<feComposite in2="oBlur" operator="in" />
	<feMerge>
		<feMergeNode></feMergeNode>
		<feMergeNode in="SourceGraphic"></feMergeNode>
	</feMerge>
</filter>
		<text xml:space="preserve" font-family="Raleway" font-size="95" font-style="normal" font-weight="900" style="stroke: none; stroke-width: 1; stroke-dasharray: none; stroke-linecap: butt; stroke-dashoffset: 0; stroke-linejoin: miter; stroke-miterlimit: 4; fill: rgb(255,130,0); fill-rule: nonzero; opacity: 1; white-space: pre;" ><tspan x="-371.12" y="29.84" >H</tspan><tspan x="-299.39" y="29.84" >u</tspan><tspan x="-238.31" y="29.84" >m</tspan><tspan x="-148.53" y="29.84" >m</tspan><tspan x="-58.76" y="29.84" >_</tspan><tspan x="-16.39" y="29.84" >B</tspan><tspan x="49.16" y="29.84" >u</tspan><tspan x="110.25" y="29.84" >r</tspan><tspan x="150.24" y="29.84" >g</tspan><tspan x="212.18" y="29.84" >u</tspan><tspan x="273.27" y="29.84" >e</tspan><tspan x="331.6" y="29.84" >r</tspan></text>
</g>
</svg>