<?xml version="1.0"?>
<svg width="640" height="480" xmlns="http://www.w3.org/2000/svg" xmlns:svg="http://www.w3.org/2000/svg" version="1.1" xml:space="preserve">
 <desc>Created with Fabric.js 3.6.6</desc>

 <g class="layer">
  <title>Layer 1</title>
  <g id="svg_1" transform="matrix(1.34962 0 0 0.890725 211.865 130.354)">
   <path d="m10.11,81.38c2.57,-19.44 19.19,-34.04 38.89,-34.04c19.7,0 36.32,14.6 38.89,34.04l-77.78,0z" fill="rgb(254,254,34)" fill-rule="nonzero" id="svg_2" stroke="rgb(179,179,175)" stroke-dashoffset="0" stroke-miterlimit="4" stroke-opacity="0.84" stroke-width="3" transform="translate(-48 -48)"/>
  </g>
  <g id="svg_3" transform="matrix(0.878063 0 0 0.426789 228.907 250.271)">
   <path d="m2.35,-126.32l84.38,0l0,0c11.05,0 20.01,9.28 20.01,20.73c0,11.45 -8.96,20.74 -20.01,20.74l-84.38,0l0,0c-11.05,0 -20.01,-9.29 -20.01,-20.74c0,-11.45 8.96,-20.73 20.01,-20.73z" fill="rgb(162,75,20)" fill-rule="nonzero" id="svg_4" stroke="rgb(0,0,0)" stroke-dashoffset="0" stroke-miterlimit="4" stroke-opacity="0.06" stroke-width="0" transform="translate(-62.2 -20.73)"/>
  </g>
  <g id="svg_5" transform="matrix(-1.2601 0 0 -0.582197 199.445 216.778)">
   <path d="m-2.91,65.6c2.57,-19.44 19.19,-34.04 38.89,-34.04c19.7,0 36.32,14.6 38.89,34.04l-77.78,0z" fill="rgb(254,254,34)" fill-rule="nonzero" id="svg_6" stroke="rgb(133,133,133)" stroke-dashoffset="0" stroke-miterlimit="4" stroke-opacity="0.84" stroke-width="3" transform="translate(-48 -48)"/>
  </g>
  <g id="svg_7" transform="matrix(0.839176 0 0 0.36121 237.238 212.34)">
   <path d="m-10.52,-83.83l84.38,0l0,0c11.05,0 20.01,9.28 20.01,20.73c0,11.45 -8.96,20.74 -20.01,20.74l-84.38,0l0,0c-11.05,0 -20.01,-9.29 -20.01,-20.74c0,-11.45 8.96,-20.73 20.01,-20.73z" fill="rgb(162,75,20)" fill-rule="nonzero" id="svg_8" stroke="rgb(0,0,0)" stroke-dashoffset="0" stroke-miterlimit="4" stroke-opacity="0.06" stroke-width="0" transform="translate(-62.2 -20.73)"/>
  </g>
  <g id="svg_9" transform="matrix(1 0 0 1 0 0) matrix(0.707459 0 0 0.131901 213.915 198.742)">
   <path d="m17.47,-56.12l84.38,0l0,0c11.05,0 20.01,9.28 20.01,20.73c0,11.45 -8.96,20.74 -20.01,20.74l-84.38,0l0,0c-11.05,0 -20.01,-9.29 -20.01,-20.74c0,-11.45 8.96,-20.73 20.01,-20.73z" fill="rgb(240,208,27)" fill-rule="nonzero" id="svg_10" stroke="rgb(0,0,0)" stroke-dashoffset="0" stroke-miterlimit="4" stroke-opacity="0.06" stroke-width="0" transform="translate(-62.2 -20.73)"/>
  </g>
  <g id="svg_11" transform="matrix(0.0951282 0.0242308 -0.0203846 0.113077 88.54 117.38)">
   <circle cx="1042.12" cy="6.62" fill="rgb(73,73,21)" fill-rule="nonzero" id="svg_12" r="40" stroke="rgb(157,153,153)" stroke-dashoffset="0" stroke-miterlimit="4"/>
  </g>
  <g id="svg_13" transform="matrix(-0.097347 -0.0236735 0.0216327 -0.106531 155.29 106.31)">
   <circle cx="-650.96" cy="-155.73" fill="rgb(73,73,21)" fill-rule="nonzero" id="svg_14" r="40" stroke="rgb(157,153,153)" stroke-dashoffset="0" stroke-miterlimit="4"/>
  </g>
  <g id="svg_15" transform="matrix(-0.11333 -0.027234 -0.0266659 0.115745 222.67 120.84)">
   <circle cx="-248.82" cy="157.45" fill="rgb(73,73,21)" fill-rule="nonzero" id="svg_16" r="40" stroke="rgb(157,153,153)" stroke-dashoffset="0" stroke-miterlimit="4"/>
  </g>
  <g id="svg_17" transform="matrix(-2.94 0 0 -1.71 -118.78 -31.53)">
   <path d="m9.11,65.02c2.57,-19.44 19.19,-34.04 38.89,-34.04c19.7,0 36.32,14.6 38.89,34.04l-77.78,0z" fill="rgb(255,255,92)" fill-rule="nonzero" id="svg_18" stroke="rgb(255,248,5)" stroke-dashoffset="0" stroke-miterlimit="4" stroke-opacity="0.84" stroke-width="3" transform=" translate(-48, -48)"/>
  </g>
  <g id="svg_19" transform="matrix(-2.94 0 0 -1.71 -118.78 -31.53)">
   <path d="m9.11,65.02c2.57,-19.44 19.19,-34.04 38.89,-34.04c19.7,0 36.32,14.6 38.89,34.04l-77.78,0z" fill="rgb(254,254,34)" fill-rule="nonzero" id="svg_20" stroke="rgb(255,248,5)" stroke-dashoffset="0" stroke-miterlimit="4" stroke-opacity="0.84" stroke-width="3" transform=" translate(-48, -48)"/>
  </g>
  <g id="svg_21" transform="matrix(0.737436 0 0 0.13 244.739 158.9)">
   <path d="m-22.68,115.38l84.38,0l0,0c11.05,0 20.01,9.28 20.01,20.73c0,11.45 -8.96,20.74 -20.01,20.74l-84.38,0l0,0c-11.05,0 -20.01,-9.29 -20.01,-20.74c0,-11.45 8.96,-20.73 20.01,-20.73z" fill="rgb(9,178,62)" fill-rule="nonzero" id="svg_22" stroke="rgb(42,153,41)" stroke-dashoffset="0" stroke-miterlimit="4" stroke-opacity="0.43" transform="translate(-62.2 -20.73)"/>
  </g>
  <g id="svg_23" transform="matrix(1 0 0 1 0 0) matrix(0.403126 0 0 0.255527 161.646 154.501)">
   <path d="m83.89,44.14l84.38,0l0,0c11.05,0 20.01,9.28 20.01,20.73c0,11.45 -8.96,20.74 -20.01,20.74l-84.38,0l0,0c-11.05,0 -20.01,-9.29 -20.01,-20.74c0,-11.45 8.96,-20.73 20.01,-20.73z" fill="rgb(255,59,7)" fill-rule="nonzero" id="svg_24" stroke="rgb(42,153,41)" stroke-dashoffset="0" stroke-miterlimit="4" stroke-opacity="0.43" transform="translate(-62.2 -20.73)"/>
  </g>
  <g id="svg_25" transform="matrix(0.429711 0 0 0.254408 200.333 185.207)">
   <path d="m109.81,-73.21l84.38,0l0,0c11.05,0 20.01,9.28 20.01,20.73c0,11.45 -8.96,20.74 -20.01,20.74l-84.38,0l0,0c-11.05,0 -20.01,-9.29 -20.01,-20.74c0,-11.45 8.96,-20.73 20.01,-20.73z" fill="rgb(255,59,7)" fill-rule="nonzero" id="svg_26" stroke="rgb(42,153,41)" stroke-dashoffset="0" stroke-miterlimit="4" stroke-opacity="0.43" transform="translate(-62.2 -20.73)"/>
  </g>
  <g id="svg_27" transform="matrix(1 0 0 1 0 0) matrix(2.77 0 0 2.77 458.49 178.51)">
   <text fill="rgb(233,162,9)" fill-rule="nonzero" font-family="Impact, Charcoal, sans-serif" font-size="18" font-style="normal" font-weight="normal" id="svg_28" stroke-dashoffset="0" stroke-miterlimit="4" xml:space="preserve">
    <tspan font-size="18px" font-style="normal" font-weight="normal" id="svg_29" x="-61.69" y="5.65">Humm_Burguer</tspan>
   </text>
  </g>
 </g>
</svg>