<?xml version="1.0" encoding="UTF-8" standalone="no" ?>
<!DOCTYPE svg PUBLIC "-//W3C//DTD SVG 1.1//EN" "http://www.w3.org/Graphics/SVG/1.1/DTD/svg11.dtd">
<svg xmlns="http://www.w3.org/2000/svg" xmlns:xlink="http://www.w3.org/1999/xlink" version="1.1" width="640" height="480" viewBox="0 0 640 480" xml:space="preserve">
<desc>Created with Fabric.js 3.6.6</desc>
<defs>
</defs>
<g transform="matrix(2.94 0 0 1.71 150.72 109.43)"  >
<path style="stroke: rgb(179,179,175); stroke-opacity: 0.84; stroke-width: 3; stroke-dasharray: none; stroke-linecap: butt; stroke-dashoffset: 0; stroke-linejoin: miter; stroke-miterlimit: 4; fill: rgb(254,254,34); fill-rule: nonzero; opacity: 1;" vector-effect="non-scaling-stroke"  transform=" translate(-48, -48)" d="M 9.113 65.022 C 11.683 45.575 28.302 30.978 48 30.978 c 19.696 0 36.316 14.598 38.887 34.045 H 9.113 z" stroke-linecap="round" />
</g>
<g transform="matrix(2.1 0 0 0.56 147.9 201.36)"  >
<path style="stroke: rgb(0,0,0); stroke-opacity: 0.06; stroke-width: 0; stroke-dasharray: none; stroke-linecap: butt; stroke-dashoffset: 0; stroke-linejoin: miter; stroke-miterlimit: 4; fill: rgb(162,75,20); fill-rule: nonzero; opacity: 1;" vector-effect="non-scaling-stroke"  transform=" translate(-62.2, -20.73)" d="m 20.013628 0 l 84.37401 0 l 0 0 c 11.053215 -1.04756605e-14 20.013626 9.282301 20.013626 20.7326 c 0 11.450296 -8.960411 20.7326 -20.013626 20.7326 l -84.37401 0 l 0 0 c -11.053222 0 -20.013628 -9.282303 -20.013628 -20.7326 c -5.2380687e-15 -11.450298 8.960406 -20.7326 20.013628 -20.7326 z" stroke-linecap="round" />
</g>
<g transform="matrix(-2.94 0 0 -1.71 148.59 242.44)"  >
<path style="stroke: rgb(133,133,133); stroke-opacity: 0.84; stroke-width: 3; stroke-dasharray: none; stroke-linecap: butt; stroke-dashoffset: 0; stroke-linejoin: miter; stroke-miterlimit: 4; fill: rgb(254,254,34); fill-rule: nonzero; opacity: 1;" vector-effect="non-scaling-stroke"  transform=" translate(-48, -48)" d="M 9.113 65.022 C 11.683 45.575 28.302 30.978 48 30.978 c 19.696 0 36.316 14.598 38.887 34.045 H 9.113 z" stroke-linecap="round" />
</g>
<g transform="matrix(2.1 0 0 0.63 147.62 173.06)"  >
<path style="stroke: rgb(0,0,0); stroke-opacity: 0.06; stroke-width: 0; stroke-dasharray: none; stroke-linecap: butt; stroke-dashoffset: 0; stroke-linejoin: miter; stroke-miterlimit: 4; fill: rgb(162,75,20); fill-rule: nonzero; opacity: 1;" vector-effect="non-scaling-stroke"  transform=" translate(-62.2, -20.73)" d="m 20.013628 0 l 84.37401 0 l 0 0 c 11.053215 -1.04756605e-14 20.013626 9.282301 20.013626 20.7326 c 0 11.450296 -8.960411 20.7326 -20.013626 20.7326 l -84.37401 0 l 0 0 c -11.053222 0 -20.013628 -9.282303 -20.013628 -20.7326 c -5.2380687e-15 -11.450298 8.960406 -20.7326 20.013628 -20.7326 z" stroke-linecap="round" />
</g>
<g transform="matrix(2.1 0 0 0.19 149.62 187.84)"  >
<path style="stroke: rgb(0,0,0); stroke-opacity: 0.06; stroke-width: 0; stroke-dasharray: none; stroke-linecap: butt; stroke-dashoffset: 0; stroke-linejoin: miter; stroke-miterlimit: 4; fill: rgb(240,208,27); fill-rule: nonzero; opacity: 1;" vector-effect="non-scaling-stroke"  transform=" translate(-62.2, -20.73)" d="m 20.013628 0 l 84.37401 0 l 0 0 c 11.053215 -1.04756605e-14 20.013626 9.282301 20.013626 20.7326 c 0 11.450296 -8.960411 20.7326 -20.013626 20.7326 l -84.37401 0 l 0 0 c -11.053222 0 -20.013628 -9.282303 -20.013628 -20.7326 c -5.2380687e-15 -11.450298 8.960406 -20.7326 20.013628 -20.7326 z" stroke-linecap="round" />
</g>
<g transform="matrix(0.14 0.03 -0.03 0.14 86.04 115.88)"  >
<circle style="stroke: rgb(157,153,153); stroke-width: 1; stroke-dasharray: none; stroke-linecap: butt; stroke-dashoffset: 0; stroke-linejoin: miter; stroke-miterlimit: 4; fill: rgb(73,73,21); fill-rule: nonzero; opacity: 1;" vector-effect="non-scaling-stroke"  cx="0" cy="0" r="40" />
</g>
<g transform="matrix(-0.18 -0.04 0.04 -0.18 150.79 102.31)"  >
<circle style="stroke: rgb(157,153,153); stroke-width: 1; stroke-dasharray: none; stroke-linecap: butt; stroke-dashoffset: 0; stroke-linejoin: miter; stroke-miterlimit: 4; fill: rgb(73,73,21); fill-rule: nonzero; opacity: 1;"  cx="0" cy="0" r="40" />
</g>
<g transform="matrix(-0.17 -0.04 -0.04 0.17 219.67 117.84)"  >
<circle style="stroke: rgb(157,153,153); stroke-width: 1; stroke-dasharray: none; stroke-linecap: butt; stroke-dashoffset: 0; stroke-linejoin: miter; stroke-miterlimit: 4; fill: rgb(73,73,21); fill-rule: nonzero; opacity: 1;"  cx="0" cy="0" r="40" />
</g>
<g transform="matrix(-2.94 0 0 -1.71 -118.78 -31.53)"  >
<path style="stroke: rgb(255,248,5); stroke-opacity: 0.84; stroke-width: 3; stroke-dasharray: none; stroke-linecap: butt; stroke-dashoffset: 0; stroke-linejoin: miter; stroke-miterlimit: 4; fill: rgb(255,255,92); fill-rule: nonzero; opacity: 1;"  transform=" translate(-48, -48)" d="M 9.113 65.022 C 11.683 45.575 28.302 30.978 48 30.978 c 19.696 0 36.316 14.598 38.887 34.045 H 9.113 z" stroke-linecap="round" />
</g>
<g transform="matrix(-2.94 0 0 -1.71 -118.78 -31.53)"  >
<path style="stroke: rgb(255,248,5); stroke-opacity: 0.84; stroke-width: 3; stroke-dasharray: none; stroke-linecap: butt; stroke-dashoffset: 0; stroke-linejoin: miter; stroke-miterlimit: 4; fill: rgb(254,254,34); fill-rule: nonzero; opacity: 1;"  transform=" translate(-48, -48)" d="M 9.113 65.022 C 11.683 45.575 28.302 30.978 48 30.978 c 19.696 0 36.316 14.598 38.887 34.045 H 9.113 z" stroke-linecap="round" />
</g>
<g transform="matrix(1.87 0 0 0.13 147.26 158.9)"  >
<path style="stroke: rgb(42,153,41); stroke-opacity: 0.43; stroke-width: 1; stroke-dasharray: none; stroke-linecap: butt; stroke-dashoffset: 0; stroke-linejoin: miter; stroke-miterlimit: 4; fill: rgb(9,178,62); fill-rule: nonzero; opacity: 1;" vector-effect="non-scaling-stroke"  transform=" translate(-62.2, -20.73)" d="m 20.013628 0 l 84.37401 0 l 0 0 c 11.053215 -1.04756605e-14 20.013626 9.282301 20.013626 20.7326 c 0 11.450296 -8.960411 20.7326 -20.013626 20.7326 l -84.37401 0 l 0 0 c -11.053222 0 -20.013628 -9.282303 -20.013628 -20.7326 c -5.2380687e-15 -11.450298 8.960406 -20.7326 20.013628 -20.7326 z" stroke-linecap="round" />
</g>
<g transform="matrix(0.98 0 0 0.34 95.9 147.78)"  >
<path style="stroke: rgb(42,153,41); stroke-opacity: 0.43; stroke-width: 1; stroke-dasharray: none; stroke-linecap: butt; stroke-dashoffset: 0; stroke-linejoin: miter; stroke-miterlimit: 4; fill: rgb(255,59,7); fill-rule: nonzero; opacity: 1;"  transform=" translate(-62.2, -20.73)" d="m 20.013628 0 l 84.37401 0 l 0 0 c 11.053215 -1.04756605e-14 20.013626 9.282301 20.013626 20.7326 c 0 11.450296 -8.960411 20.7326 -20.013626 20.7326 l -84.37401 0 l 0 0 c -11.053222 0 -20.013628 -9.282303 -20.013628 -20.7326 c -5.2380687e-15 -11.450298 8.960406 -20.7326 20.013628 -20.7326 z" stroke-linecap="round" />
</g>
<g transform="matrix(0.99 0 0 0.34 213.42 147.58)"  >
<path style="stroke: rgb(42,153,41); stroke-opacity: 0.43; stroke-width: 1; stroke-dasharray: none; stroke-linecap: butt; stroke-dashoffset: 0; stroke-linejoin: miter; stroke-miterlimit: 4; fill: rgb(255,59,7); fill-rule: nonzero; opacity: 1;"  transform=" translate(-62.2, -20.73)" d="m 20.013628 0 l 84.37401 0 l 0 0 c 11.053215 -1.04756605e-14 20.013626 9.282301 20.013626 20.7326 c 0 11.450296 -8.960411 20.7326 -20.013626 20.7326 l -84.37401 0 l 0 0 c -11.053222 0 -20.013628 -9.282303 -20.013628 -20.7326 c -5.2380687e-15 -11.450298 8.960406 -20.7326 20.013628 -20.7326 z" stroke-linecap="round" />
</g>
<g transform="matrix(2.77 0 0 2.77 458.49 178.51)" style=""  >
		<text xml:space="preserve" font-family="Impact, Charcoal, sans-serif" font-size="18" font-style="normal" font-weight="normal" style="stroke: none; stroke-width: 1; stroke-dasharray: none; stroke-linecap: butt; stroke-dashoffset: 0; stroke-linejoin: miter; stroke-miterlimit: 4; fill: rgb(233,162,9); fill-rule: nonzero; opacity: 1; white-space: pre;" ><tspan x="-61.69" y="5.65" style="stroke-width: 1; font-size: 18px; font-style: normal; font-weight: normal; ">Humm_Burguer</tspan></text>
</g>
</svg>